<svg role="img" viewBox="0 0 24 5" xmlns="http://www.w3.org/2000/svg" class="fill-current h-6">
	<path d="M 14.088,3.3849713 H 13.792 V 0.11697131 h 0.998 c 0.815,0 1.094,0.47 1.094,0.97999999 0,0.51 -0.28,0.98 -1.094,0.98 h -0.701 v 1.308 z m 0,-1.582 h 0.74 a 0.642,0.642 0 0 0 0.733,-0.705 0.642,0.642 0 0 0 -0.732,-0.70599999 h -0.741 z m 2.881,-0.37 a 1.913,1.913 0 0 0 -0.653,0.11 v -0.262 a 1.756,1.756 0 0 1 0.653,-0.118 c 0.654,0 0.824,0.297 0.824,0.732 v 1.49 h -0.17 l -0.066,-0.174 a 1.143,1.143 0 0 1 -0.657,0.218 0.663,0.663 0 0 1 -0.763,-0.702 c 0,-0.37 0.205,-0.645 0.776,-0.68 l 0.575,-0.035 v -0.122 c 0,-0.318 -0.113,-0.457 -0.519,-0.457 z m -0.078,0.85 c -0.31,0.03 -0.445,0.192 -0.445,0.445 0,0.196 0.048,0.431 0.462,0.431 a 1.056,1.056 0 0 0 0.58,-0.174 v -0.758 z m 1.86,0.493 a 0.252,0.252 0 0 0 -0.083,0.16 c 0,0.11 0.053,0.158 0.166,0.17 l 0.74,0.088 c 0.41,0.044 0.598,0.205 0.598,0.584 0,0.532 -0.532,0.74 -1.133,0.74 -0.61,0 -0.976,-0.178 -0.976,-0.657 a 0.609,0.609 0 0 1 0.449,-0.575 v -0.005 a 0.321,0.321 0 0 1 -0.14,-0.287 0.392,0.392 0 0 1 0.166,-0.297 0.746,0.746 0 0 1 -0.349,-0.714 c 0,-0.449 0.192,-0.82 0.85,-0.82 a 1.36,1.36 0 0 1 0.349,0.044 h 0.74 v 0.165 l -0.365,0.105 a 0.908,0.908 0 0 1 0.126,0.505 c 0,0.449 -0.192,0.82 -0.85,0.82 a 1.397,1.397 0 0 1 -0.288,-0.027 z m 0.127,0.588 c -0.288,0.065 -0.532,0.2 -0.532,0.48 0,0.322 0.244,0.413 0.693,0.413 0.435,0 0.845,-0.109 0.845,-0.48 0,-0.221 -0.105,-0.309 -0.37,-0.34 z m 0.727,-1.381 c 0,-0.288 -0.056,-0.554 -0.566,-0.554 -0.51,0 -0.567,0.266 -0.567,0.554 0,0.288 0.057,0.553 0.567,0.553 0.51,0 0.566,-0.266 0.566,-0.554 z m 1.637,-0.82 c 0.74,0 0.828,0.506 0.828,1.133 v 0.14 h -1.438 c 0.018,0.379 0.118,0.723 0.61,0.723 a 1.665,1.665 0 0 0 0.719,-0.122 v 0.261 a 1.765,1.765 0 0 1 -0.719,0.131 c -0.736,0 -0.915,-0.505 -0.915,-1.133 0,-0.628 0.179,-1.133 0.915,-1.133 z m -0.61,1.024 h 1.133 c 0,-0.387 -0.022,-0.753 -0.523,-0.753 -0.506,0 -0.597,0.36 -0.61,0.753 z m 2.601,-0.052 c 0.619,0.057 0.767,0.266 0.767,0.623 0,0.336 -0.213,0.671 -0.876,0.671 a 2.147,2.147 0 0 1 -0.649,-0.109 v -0.261 a 1.924,1.924 0 0 0 0.654,0.1 c 0.453,0 0.575,-0.192 0.575,-0.397 0,-0.2 -0.061,-0.34 -0.492,-0.374 -0.632,-0.057 -0.763,-0.28 -0.763,-0.58 0,-0.31 0.2,-0.645 0.815,-0.645 a 1.627,1.627 0 0 1 0.627,0.11 v 0.26 a 1.799,1.799 0 0 0 -0.631,-0.1 c -0.432,0 -0.523,0.162 -0.523,0.376 0,0.19 0.078,0.29 0.496,0.326 z m -20.787,-0.659 H 1.38 a 0.05,0.05 0 0 0 -0.05,0.05 v 0.522 a 0.05,0.05 0 0 0 0.05,0.05 h 0.416 v 0.649 a 1.267,1.267 0 0 1 -0.351,0.032 c -0.305,0 -0.731,-0.112 -0.731,-1.048 0,-0.93599999 0.443,-1.05999999 0.86,-1.05999999 a 1.69,1.69 0 0 1 0.614,0.094 0.05,0.05 0 0 0 0.06,-0.05 l 0.12,-0.504 a 0.047,0.047 0 0 0 -0.02,-0.039 1.715,1.715 0 0 0 -0.903,-0.165 c -0.715,0 -1.445,0.302 -1.445,1.75999999 0,1.458 0.837,1.675 1.542,1.675 a 1.736,1.736 0 0 0 0.938,-0.25 0.043,0.043 0 0 0 0.016,-0.038 v -1.628 a 0.05,0.05 0 0 0 -0.05,-0.05 z M 7.991,0.18197131 a 0.05,0.05 0 0 0 -0.05,-0.05 H 7.34 a 0.05,0.05 0 0 0 -0.05,0.05 V 1.3429713 H 6.354 V 0.18197131 a 0.05,0.05 0 0 0 -0.05,-0.05 h -0.6 a 0.05,0.05 0 0 0 -0.05,0.05 V 3.3269713 a 0.05,0.05 0 0 0 0.05,0.05 h 0.6 a 0.05,0.05 0 0 0 0.05,-0.05 v -1.345 h 0.937 l -0.002,1.345 a 0.05,0.05 0 0 0 0.05,0.05 h 0.603 a 0.05,0.05 0 0 0 0.05,-0.05 z m -4.389,0.412 a 0.388,0.388 0 1 0 -0.387,0.392 0.39,0.39 0 0 0 0.387,-0.392 z M 3.56,2.6619713 v -1.451 a 0.05,0.05 0 0 0 -0.05,-0.05 h -0.6 a 0.057,0.057 0 0 0 -0.051,0.056 v 2.08 c 0,0.06 0.038,0.079 0.087,0.079 h 0.54 c 0.06,0 0.074,-0.03 0.074,-0.08 z m 6.764,-1.497 H 9.727 a 0.05,0.05 0 0 0 -0.05,0.05 v 1.542 a 0.673,0.673 0 0 1 -0.367,0.11 c -0.215,0 -0.272,-0.097 -0.272,-0.307 v -1.344 a 0.05,0.05 0 0 0 -0.05,-0.05 H 8.384 a 0.05,0.05 0 0 0 -0.05,0.05 v 1.446 c 0,0.626 0.348,0.779 0.828,0.779 a 1.398,1.398 0 0 0 0.71,-0.217 1.274,1.274 0 0 0 0.022,0.128 0.052,0.052 0 0 0 0.044,0.027 l 0.385,-0.002 a 0.05,0.05 0 0 0 0.05,-0.05 v -2.112 a 0.05,0.05 0 0 0 -0.05,-0.05 z m 1.662,-0.07 a 1.121,1.121 0 0 0 -0.569,0.15 V 0.18197131 a 0.05,0.05 0 0 0 -0.05,-0.05 h -0.602 a 0.05,0.05 0 0 0 -0.05,0.05 V 3.3269713 a 0.05,0.05 0 0 0 0.05,0.05 h 0.418 a 0.05,0.05 0 0 0 0.044,-0.027 0.973,0.973 0 0 0 0.025,-0.144 1.08,1.08 0 0 0 0.713,0.233 c 0.548,0 0.862,-0.278 0.862,-1.248 0,-0.97 -0.502,-1.095 -0.841,-1.095 z m -0.235,1.771 a 0.716,0.716 0 0 1 -0.347,-0.1 v -0.996 a 0.793,0.793 0 0 1 0.308,-0.1 c 0.215,-0.019 0.422,0.046 0.422,0.558 0,0.54 -0.094,0.647 -0.383,0.639 z m -6.475,-1.706 H 4.826 L 4.824,0.56497131 c 0,-0.023 -0.011,-0.034 -0.037,-0.034 H 4.172 c -0.024,0 -0.036,0.01 -0.036,0.033 V 1.1789713 l -0.33,0.08 a 0.05,0.05 0 0 0 -0.035,0.048 v 0.387 a 0.05,0.05 0 0 0 0.05,0.05 h 0.315 v 0.93 c 0,0.692 0.484,0.76 0.812,0.76 a 1.375,1.375 0 0 0 0.357,-0.06 0.046,0.046 0 0 0 0.028,-0.044 l 10e-4,-0.426 a 0.05,0.05 0 0 0 -0.05,-0.05 c -0.026,0 -0.094,0.01 -0.163,0.01 -0.221,0 -0.296,-0.102 -0.296,-0.236 v -0.884 h 0.451 a 0.05,0.05 0 0 0 0.05,-0.05 v -0.484 a 0.05,0.05 0 0 0 -0.05,-0.05 z"/>
</svg>