<?xml version="1.0" encoding="UTF-8" standalone="no"?>
<!-- Created with Inkscape (http://www.inkscape.org/) -->

<svg
   width="226"
   height="64"
   viewBox="0 0 59.795832 16.933333"
   version="1.1"
   id="svg5"
   sodipodi:docname="bestodon.svg"
   inkscape:version="1.2.1 (9c6d41e410, 2022-07-14, custom)"
   xmlns:inkscape="http://www.inkscape.org/namespaces/inkscape"
   xmlns:sodipodi="http://sodipodi.sourceforge.net/DTD/sodipodi-0.dtd"
   xmlns="http://www.w3.org/2000/svg"
   xmlns:svg="http://www.w3.org/2000/svg">
  <sodipodi:namedview
     id="namedview7"
     pagecolor="#ffffff"
     bordercolor="#666666"
     borderopacity="1.0"
     inkscape:showpageshadow="2"
     inkscape:pageopacity="0.0"
     inkscape:pagecheckerboard="0"
     inkscape:deskcolor="#d1d1d1"
     inkscape:document-units="px"
     showgrid="false"
     inkscape:zoom="3.8053097"
     inkscape:cx="113"
     inkscape:cy="49.798837"
     inkscape:window-width="1334"
     inkscape:window-height="716"
     inkscape:window-x="32"
     inkscape:window-y="32"
     inkscape:window-maximized="1"
     inkscape:current-layer="layer1" />
  <defs
     id="defs2">
    <clipPath
       clipPathUnits="userSpaceOnUse"
       id="clipPath515">
      <g
         id="g519">
        <rect
           x="1.0583305"
           y="1.0583317"
           width="13.821642"
           height="14.81667"
           id="rect517"
           style="stroke-width:0.0148167" />
      </g>
    </clipPath>
    <clipPath
       clipPathUnits="userSpaceOnUse"
       id="clipPath521">
      <g
         id="g525">
        <rect
           x="1.0583305"
           y="1.0583317"
           width="13.821642"
           height="14.81667"
           id="rect523"
           style="stroke-width:0.0148167" />
      </g>
    </clipPath>
    <linearGradient
       id="paint0_linear_539_135"
       x1="36.620998"
       y1="0.929932"
       x2="36.620998"
       y2="80.071198"
       gradientUnits="userSpaceOnUse">
      <stop
         stop-color="#6364FF"
         id="stop355"
         offset="0"
         style="stop-color:#63deff;stop-opacity:1;" />
      <stop
         offset="1"
         stop-color="#563ACC"
         id="stop357"
         style="stop-color:#213acc;stop-opacity:1;" />
    </linearGradient>
  </defs>
  <g
     inkscape:label="Capa 1"
     inkscape:groupmode="layer"
     id="layer1"
     transform="translate(-1.0583351,-1.0583317)">
    <g
       id="g1392"
       transform="matrix(0.20056356,0,0,0.20056356,1.5875018,1.4009877)">
      <path
         d="M 72.9455,18.4505 C 71.8169,9.95203 64.5038,3.24329 55.846,1.95268 54.3811,1.73352 48.8453,0.929932 36.0206,0.929932 H 35.9245 C 23.0879,0.929932 20.338,1.73352 18.873,1.95268 10.4433,3.21894 2.75813,9.23367 0.884866,17.8418 c -0.88860151,4.2371 -0.9846665,8.9369 -0.8165528,13.247 0.2401618,6.1852 0.2881948,12.346 0.8405678,18.5069 0.384259,4.091 1.044709,8.1455 1.993349,12.139 1.7772,7.3784 8.95807,13.515 15.99487,16.0109 7.529,2.6056 15.6346,3.0438 23.3917,1.254 0.8526,-0.2069 1.6932,-0.4382 2.5338,-0.7061 1.8853,-0.6088 4.0947,-1.2906 5.7278,-2.4838 0.0241,-0.0122 0.0361,-0.0365 0.0481,-0.0609 0.012,-0.0243 0.024,-0.0487 0.024,-0.0853 v -5.966 c 0,0 0,-0.0487 -0.024,-0.073 0,-0.0243 -0.024,-0.0487 -0.0481,-0.0609 -0.024,-0.0121 -0.048,-0.0244 -0.0719,-0.0365 -0.0242,0 -0.0481,0 -0.0721,0 -4.9715,1.2054 -10.0748,1.8142 -15.1783,1.802 -8.802,0 -11.1676,-4.2372 -11.84,-5.9904 -0.5404,-1.5219 -0.8886,-3.117 -1.0327,-4.7241 0,-0.0244 0,-0.0487 0.012,-0.0731 0,-0.0243 0.024,-0.0487 0.0481,-0.0609 0.0239,-0.0121 0.0479,-0.0243 0.0719,-0.0365 h 0.0841 c 4.8873,1.1932 9.9067,1.802 14.9381,1.802 1.2129,0 2.4136,0 3.6265,-0.0365 5.0554,-0.1462 10.3871,-0.4019 15.3704,-1.388 0.12,-0.0244 0.2522,-0.0487 0.3602,-0.0731 7.8534,-1.5341 15.3224,-6.3313 16.0788,-18.4825 0.0242,-0.4748 0.0962,-5.0163 0.0962,-5.5033 0,-1.6925 0.5403,-11.9686 -0.0841,-18.2877 z"
         fill="url(#paint0_linear_539_135)"
         id="path349"
         style="fill:url(#paint0_linear_539_135)" />
      <path
         d="m 14.8143,23.1993 c 0,-2.4838 1.9574,-4.4805 4.383,-4.4805 2.4257,0 4.3829,2.0089 4.3829,4.4805 0,2.4716 -1.9572,4.4806 -4.3829,4.4806 -2.4256,0 -4.383,-2.009 -4.383,-4.4806 z"
         fill="#ffffff"
         id="path351" />
    </g>
    <g
       aria-label="Bestodon"
       id="text581"
       style="font-size:12.7px;line-height:11.9062px;font-family:Roboto;-inkscape-font-specification:Roboto;letter-spacing:0px;word-spacing:0px;overflow:visible;fill-rule:evenodd;stroke:#000000;stroke-width:0.00293981">
      <path
         d="M 7.5838149,12.709302 V 3.6803958 h 2.5858891 q 1.413867,0 2.201416,0.6201172 0.787548,0.613916 0.787548,1.841748 0,0.6387207 -0.291455,1.1410156 -0.285254,0.4960938 -0.84956,0.7379395 0.756543,0.1550293 1.122412,0.7255371 0.37207,0.5705078 0.37207,1.3332518 0,1.296045 -0.756543,1.965772 -0.750342,0.663525 -2.145605,0.663525 z M 9.3325453,8.7095461 v 2.6354979 h 1.2774417 q 0.570508,0 0.861963,-0.31626 0.291455,-0.322461 0.291455,-0.948779 0,-0.6449218 -0.266651,-0.9983885 -0.26665,-0.3534668 -0.830957,-0.3720704 h -0.06201 z m 0,-1.2092284 h 0.9177737 q 0.564306,-0.012402 0.861963,-0.3162598 0.297656,-0.3038574 0.297656,-0.8805664 0,-0.6449219 -0.310059,-0.9487793 Q 10.789821,5.0508548 10.169704,5.0508548 H 9.3325453 Z"
         style="font-weight:bold;font-stretch:condensed;-inkscape-font-specification:'Roboto Bold Condensed';fill:#ffffff"
         id="path1558" />
      <path
         d="m 17.121217,12.839527 q -1.327051,0 -2.058789,-0.917774 Q 14.33069,11.00398 14.33069,9.5591067 V 9.3048586 q 0,-1.519287 0.700732,-2.4742675 0.706934,-0.9549805 1.984375,-0.9549805 1.184424,0 1.816943,0.8123535 0.63252,0.8123536 0.63252,2.2076172 v 0.9549805 h -3.38584 q 0.04341,0.7441402 0.334863,1.1844242 0.297657,0.440283 0.911573,0.440283 0.520898,0 0.868164,-0.117822 0.353466,-0.124024 0.756543,-0.384473 l 0.452685,1.091406 q -0.359668,0.328662 -0.973584,0.551904 -0.607715,0.223243 -1.308447,0.223243 z m -0.10542,-5.5934574 q -0.440283,0 -0.657324,0.3906738 -0.21084,0.3844727 -0.266651,1.0604004 h 1.661914 V 8.5421145 q 0,-0.613916 -0.173632,-0.9549804 -0.167432,-0.3410645 -0.564307,-0.3410645 z"
         style="font-weight:bold;font-stretch:condensed;-inkscape-font-specification:'Roboto Bold Condensed';fill:#ffffff"
         id="path1560" />
      <path
         d="m 23.347193,10.960572 q 0,-0.297657 -0.229443,-0.508497 -0.229444,-0.210839 -0.886768,-0.5146968 -1.023193,-0.3844727 -1.53789,-0.8619629 -0.514698,-0.4774902 -0.514698,-1.227832 0,-0.8185547 0.651123,-1.3952637 0.657325,-0.576709 1.736329,-0.576709 1.128613,0 1.798339,0.6015137 0.675928,0.5953125 0.644922,1.5068848 l -0.0124,0.037207 h -1.686719 q 0,-0.4216797 -0.186035,-0.6759277 -0.186035,-0.2604493 -0.564307,-0.2604493 -0.303857,0 -0.514697,0.1984375 -0.204639,0.1984375 -0.204639,0.4836914 0,0.2976563 0.204639,0.4836914 0.204639,0.179834 0.892969,0.502295 1.0604,0.3658691 1.575097,0.8619628 0.520899,0.4898928 0.520899,1.2774418 0,0.855761 -0.68833,1.401464 -0.682129,0.545704 -1.804541,0.545704 -1.172022,0 -1.854151,-0.669727 -0.682128,-0.669727 -0.651123,-1.519287 l 0.0186,-0.03721 h 1.5875 q 0.0124,0.545703 0.260449,0.787549 0.248047,0.235644 0.682129,0.235644 0.37207,0 0.564307,-0.179834 0.198437,-0.186035 0.198437,-0.496093 z"
         style="font-weight:bold;font-stretch:condensed;-inkscape-font-specification:'Roboto Bold Condensed';fill:#ffffff"
         id="path1562" />
      <path
         d="m 27.985669,4.3315189 v 1.6681152 h 0.911572 v 1.2464355 h -0.911572 v 3.4168454 q 0,0.427881 0.124024,0.607715 0.124023,0.179834 0.341064,0.179834 0.124024,0 0.204639,-0.0124 0.08062,-0.0186 0.198437,-0.05581 l 0.136426,1.289844 q -0.248047,0.08682 -0.47749,0.124023 -0.223242,0.04341 -0.508496,0.04341 -0.855762,0 -1.314649,-0.520899 -0.452685,-0.520898 -0.452685,-1.64331 V 7.2460696 H 25.424585 V 5.9996341 h 0.812354 V 4.3315189 Z"
         style="font-weight:bold;font-stretch:condensed;-inkscape-font-specification:'Roboto Bold Condensed';fill:#ffffff"
         id="path1564" />
      <path
         d="m 29.659986,9.2924563 q 0,-1.5130859 0.719336,-2.4618652 0.725537,-0.9549805 2.033984,-0.9549805 1.302246,0 2.033984,0.9549805 0.731739,0.9487793 0.731739,2.4618652 v 0.1426269 q 0,1.5130858 -0.731739,2.4618648 -0.725537,0.942579 -2.021582,0.942579 -1.314648,0 -2.040185,-0.942579 -0.725537,-0.942578 -0.725537,-2.4618648 z m 1.742529,0.1426269 q 0,0.9363768 0.229443,1.4882808 0.235645,0.551905 0.79375,0.551905 0.533301,0 0.768946,-0.551905 0.235644,-0.551904 0.235644,-1.4882808 V 9.2924563 q 0,-0.9239746 -0.235644,-1.4820801 -0.235645,-0.5643066 -0.781348,-0.5643066 -0.545703,0 -0.781348,0.5643066 -0.229443,0.5643067 -0.229443,1.4820801 z"
         style="font-weight:bold;font-stretch:condensed;-inkscape-font-specification:'Roboto Bold Condensed';fill:#ffffff"
         id="path1566" />
      <path
         d="m 35.892164,9.391675 q 0,-1.5812988 0.589111,-2.5486816 0.589112,-0.9673828 1.668116,-0.9673828 0.403076,0 0.725537,0.1922364 0.328662,0.1922363 0.58291,0.5457031 V 3.035474 h 1.74873 v 9.673828 h -1.494482 l -0.130225,-0.756543 q -0.26665,0.434082 -0.626318,0.663525 -0.359668,0.223243 -0.818555,0.223243 -1.066601,0 -1.655713,-0.905372 -0.589111,-0.911572 -0.589111,-2.4122553 z m 1.736328,0.1302247 q 0,0.9115723 0.223242,1.4324703 0.223243,0.514698 0.73794,0.514698 0.285254,0 0.502295,-0.130225 0.223242,-0.136426 0.365869,-0.396875 V 7.8599856 Q 39.315211,7.5747317 39.091969,7.4135012 38.868727,7.2522708 38.595875,7.2522708 q -0.508496,0 -0.737939,0.5891113 -0.229444,0.5891113 -0.229444,1.5502929 z"
         style="font-weight:bold;font-stretch:condensed;-inkscape-font-specification:'Roboto Bold Condensed';fill:#ffffff"
         id="path1568" />
      <path
         d="m 42.161548,9.2924563 q 0,-1.5130859 0.719336,-2.4618652 0.725537,-0.9549805 2.033984,-0.9549805 1.302246,0 2.033984,0.9549805 0.731739,0.9487793 0.731739,2.4618652 v 0.1426269 q 0,1.5130858 -0.731739,2.4618648 -0.725537,0.942579 -2.021582,0.942579 -1.314648,0 -2.040185,-0.942579 -0.725537,-0.942578 -0.725537,-2.4618648 z m 1.742529,0.1426269 q 0,0.9363768 0.229443,1.4882808 0.235645,0.551905 0.79375,0.551905 0.533301,0 0.768946,-0.551905 Q 45.93186,10.37146 45.93186,9.4350832 V 9.2924563 q 0,-0.9239746 -0.235644,-1.4820801 -0.235645,-0.5643066 -0.781348,-0.5643066 -0.545703,0 -0.781348,0.5643066 -0.229443,0.5643067 -0.229443,1.4820801 z"
         style="font-weight:bold;font-stretch:condensed;-inkscape-font-specification:'Roboto Bold Condensed';fill:#ffffff"
         id="path1570" />
      <path
         d="m 50.229273,5.9996341 0.07441,0.9363769 q 0.285254,-0.5022949 0.694531,-0.7813476 0.415479,-0.2790528 0.923975,-0.2790528 0.855762,0 1.339453,0.6697266 0.489893,0.6635254 0.489893,2.0897949 V 12.709302 H 52.002808 V 8.6351321 q 0,-0.756543 -0.186035,-1.0666016 -0.179834,-0.3162597 -0.551904,-0.3162597 -0.291455,0 -0.5271,0.1364258 -0.229443,0.1364257 -0.390674,0.3844726 v 4.9361328 h -1.74873 V 5.9996341 Z"
         style="font-weight:bold;font-stretch:condensed;-inkscape-font-specification:'Roboto Bold Condensed';fill:#ffffff"
         id="path1572" />
    </g>
  </g>
</svg>
