<?xml version="1.0" encoding="UTF-8" standalone="no"?>
<!-- Created with Inkscape (http://www.inkscape.org/) -->

<svg
   width="256"
   height="256"
   viewBox="0 0 67.733332 67.733333"
   version="1.1"
   id="svg1266"
   sodipodi:docname="icon.svg"
   inkscape:version="1.2.1 (9c6d41e410, 2022-07-14, custom)"
   xmlns:inkscape="http://www.inkscape.org/namespaces/inkscape"
   xmlns:sodipodi="http://sodipodi.sourceforge.net/DTD/sodipodi-0.dtd"
   xmlns="http://www.w3.org/2000/svg"
   xmlns:svg="http://www.w3.org/2000/svg">
  <sodipodi:namedview
     id="namedview140"
     pagecolor="#ffffff"
     bordercolor="#666666"
     borderopacity="1.0"
     inkscape:showpageshadow="2"
     inkscape:pageopacity="0.0"
     inkscape:pagecheckerboard="0"
     inkscape:deskcolor="#d1d1d1"
     showgrid="false"
     inkscape:zoom="1.9296875"
     inkscape:cx="166.08907"
     inkscape:cy="128"
     inkscape:window-width="1334"
     inkscape:window-height="716"
     inkscape:window-x="32"
     inkscape:window-y="32"
     inkscape:window-maximized="1"
     inkscape:current-layer="g508" />
  <defs
     id="defs1263">
    <clipPath
       clipPathUnits="userSpaceOnUse"
       id="clipPath521">
      <g
         id="g525">
        <rect
           x="1.0583305"
           y="1.0583317"
           width="13.821642"
           height="14.81667"
           id="rect523"
           style="stroke-width:0.0148167" />
      </g>
    </clipPath>
    <linearGradient
       id="paint0_linear_539_135"
       x1="36.620998"
       y1="0.929932"
       x2="36.620998"
       y2="80.071198"
       gradientUnits="userSpaceOnUse">
      <stop
         stop-color="#6364FF"
         id="stop355"
         offset="0"
         style="stop-color:#63deff;stop-opacity:1;" />
      <stop
         offset="1"
         stop-color="#563ACC"
         id="stop357"
         style="stop-color:#213acc;stop-opacity:1;" />
    </linearGradient>
  </defs>
  <g
     id="g508"
     transform="matrix(0.83568149,0,0,0.83568149,3.2561847,0.0166229)">
    <path
       d="M 72.9455,18.4505 C 71.8169,9.95203 64.5038,3.24329 55.846,1.95268 54.3811,1.73352 48.8453,0.929932 36.0206,0.929932 H 35.9245 C 23.0879,0.929932 20.338,1.73352 18.873,1.95268 10.4433,3.21894 2.75813,9.23367 0.884866,17.8418 c -0.88860151,4.2371 -0.9846665,8.9369 -0.8165528,13.247 0.2401618,6.1852 0.2881948,12.346 0.8405678,18.5069 0.384259,4.091 1.044709,8.1455 1.993349,12.139 1.7772,7.3784 8.95807,13.515 15.99487,16.0109 7.529,2.6056 15.6346,3.0438 23.3917,1.254 0.8526,-0.2069 1.6932,-0.4382 2.5338,-0.7061 1.8853,-0.6088 4.0947,-1.2906 5.7278,-2.4838 0.0241,-0.0122 0.0361,-0.0365 0.0481,-0.0609 0.012,-0.0243 0.024,-0.0487 0.024,-0.0853 v -5.966 c 0,0 0,-0.0487 -0.024,-0.073 0,-0.0243 -0.024,-0.0487 -0.0481,-0.0609 -0.024,-0.0121 -0.048,-0.0244 -0.0719,-0.0365 -0.0242,0 -0.0481,0 -0.0721,0 -4.9715,1.2054 -10.0748,1.8142 -15.1783,1.802 -8.802,0 -11.1676,-4.2372 -11.84,-5.9904 -0.5404,-1.5219 -0.8886,-3.117 -1.0327,-4.7241 0,-0.0244 0,-0.0487 0.012,-0.0731 0,-0.0243 0.024,-0.0487 0.0481,-0.0609 0.0239,-0.0121 0.0479,-0.0243 0.0719,-0.0365 h 0.0841 c 4.8873,1.1932 9.9067,1.802 14.9381,1.802 1.2129,0 2.4136,0 3.6265,-0.0365 5.0554,-0.1462 10.3871,-0.4019 15.3704,-1.388 0.12,-0.0244 0.2522,-0.0487 0.3602,-0.0731 7.8534,-1.5341 15.3224,-6.3313 16.0788,-18.4825 0.0242,-0.4748 0.0962,-5.0163 0.0962,-5.5033 0,-1.6925 0.5403,-11.9686 -0.0841,-18.2877 z"
       fill="url(#paint0_linear_539_135)"
       id="path349"
       style="fill:url(#paint0_linear_539_135)" />
    <path
       d="m 14.8143,23.1993 c 0,-2.4838 1.9574,-4.4805 4.383,-4.4805 2.4257,0 4.3829,2.0089 4.3829,4.4805 0,2.4716 -1.9572,4.4806 -4.3829,4.4806 -2.4256,0 -4.383,-2.009 -4.383,-4.4806 z"
       fill="#ffffff"
       id="path351" />
  </g>
  <g
     aria-label="B"
     id="text581"
     style="font-size:56.6964px;line-height:53.1527px;font-family:Roboto;-inkscape-font-specification:Roboto;letter-spacing:0px;word-spacing:0px;overflow:visible;fill:#ffffff;fill-rule:evenodd;stroke:#000000;stroke-width:0.0131241"
     transform="translate(8.4666671)">
    <path
       d="M 18.529847,48.082287 V 7.7746902 h 13.205167 q 7.502307,0 11.682559,2.7960628 4.207936,2.768379 4.207936,8.277453 0,2.879114 -1.328822,5.121501 -1.328822,2.214703 -4.152568,3.349738 3.598892,0.775146 5.315287,3.21132 1.744079,2.436173 1.744079,5.619809 0,5.896647 -3.958782,8.91418 -3.958782,3.017533 -11.350353,3.017533 z m 9.35712,-17.302368 v 10.104583 h 6.007383 q 2.989849,0 4.484773,-1.162719 1.494925,-1.190403 1.494925,-3.626577 0,-2.574592 -1.328822,-3.903414 -1.301138,-1.328822 -4.318671,-1.411873 h -0.304522 z m 0,-6.201169 h 3.681944 q 3.377423,0 5.03845,-1.162719 1.661027,-1.190403 1.661027,-3.515841 0,-2.574593 -1.60566,-3.737312 -1.605659,-1.190403 -4.927714,-1.190403 h -3.848047 z"
       id="path297" />
  </g>
</svg>
